<?xml version="1.0" encoding="UTF-8"?>
<svg width="50px" height="50px" viewBox="0 0 50 50" version="1.1" xmlns="http://www.w3.org/2000/svg" xmlns:xlink="http://www.w3.org/1999/xlink">
    <!-- Generator: Sketch 51.2 (57519) - http://www.bohemiancoding.com/sketch -->
    <title>闪电-2</title>
    <desc>Created with Sketch.</desc>
    <defs></defs>
    <g id="Page-1" stroke="none" stroke-width="1" fill="none" fill-rule="evenodd">
        <g id="天气监测图标10.10" transform="translate(-54.000000, -156.000000)" fill-rule="nonzero">
            <g id="Group-2-Copy" transform="translate(54.000000, 156.000000)">
                <g id="闪电-2" fill="#FFE000">
                    <polygon id="Shape" points="0.729492188 31.5566406 20.3203125 27.5322266 12.6132812 49.7207031 47.1777344 14.9921875 27.7919922 20.1054688 30.5566406 0.4296875"></polygon>
                </g>
                <g id="加" transform="translate(26.000000, 29.000000)" fill="#000000">
                    <rect id="Rectangle-path" opacity="0" x="0" y="6" width="16" height="16"></rect>
                    <path d="M18.9629339,7.9989339 C19.2331201,7.9989339 19.4926411,8.05226013 19.7414968,8.15891258 C19.9903525,8.26556503 20.2036574,8.4077683 20.3814115,8.58552239 C20.5591656,8.76327647 20.7013689,8.97658138 20.8080213,9.2254371 C20.9146738,9.47429282 20.968,9.73381379 20.968,10.004 C20.968,10.2884065 20.9146738,10.5514826 20.8080213,10.7932281 C20.7013689,11.0349737 20.5591656,11.2447235 20.3814115,11.4224776 C20.2036574,11.6002317 19.9903525,11.742435 19.7414968,11.8490874 C19.4926411,11.9557399 19.2331201,12.0090661 18.9629339,12.0090661 L12.9690661,12.0090661 L12.9690661,18.0029339 C12.9690661,18.2873404 12.9157399,18.5504165 12.8090874,18.792162 C12.702435,19.0339076 12.5602317,19.2436574 12.3824776,19.4214115 C12.2047235,19.5991656 11.9914186,19.7413689 11.7425629,19.8480213 C11.4937072,19.9546738 11.2341862,20.008 10.964,20.008 C10.6795935,20.008 10.4165174,19.9546738 10.1747719,19.8480213 C9.9330263,19.7413689 9.72327647,19.5991656 9.54552239,19.4214115 C9.3677683,19.2436574 9.22556503,19.0339076 9.11891258,18.792162 C9.01226013,18.5504165 8.9589339,18.2873404 8.9589339,18.0029339 L8.9589339,12.0090661 L2.9650661,12.0090661 C2.68065956,12.0090661 2.41758351,11.9557399 2.17583795,11.8490874 C1.9340924,11.742435 1.72434257,11.6002317 1.54658849,11.4224776 C1.3688344,11.2447235 1.22663113,11.0349737 1.11997868,10.7932281 C1.01332623,10.5514826 0.96,10.2884065 0.96,10.004 C0.96,9.73381379 1.01332623,9.47429282 1.11997868,9.2254371 C1.22663113,8.97658138 1.3688344,8.76327647 1.54658849,8.58552239 C1.72434257,8.4077683 1.9340924,8.26556503 2.17583795,8.15891258 C2.41758351,8.05226013 2.68065956,7.9989339 2.9650661,7.9989339 L8.9589339,7.9989339 L8.9589339,2.0050661 C8.9589339,1.73487989 9.01226013,1.47535892 9.11891258,1.2265032 C9.22556503,0.977647477 9.3677683,0.764342573 9.54552239,0.586588486 C9.72327647,0.408834399 9.9330263,0.26663113 10.1747719,0.159978678 C10.4165174,0.053326226 10.6795935,4.93366699e-17 10.964,0 C11.5185928,0 11.9914186,0.195529495 12.3824776,0.586588486 C12.7735366,0.977647477 12.9690661,1.45047335 12.9690661,2.0050661 L12.9690661,7.9989339 L18.9629339,7.9989339 Z" id="Shape"></path>
                </g>
            </g>
        </g>
    </g>
</svg>