<?xml version="1.0" encoding="UTF-8"?>
<svg width="50px" height="50px" viewBox="0 0 50 50" version="1.1" xmlns="http://www.w3.org/2000/svg" xmlns:xlink="http://www.w3.org/1999/xlink">
    <!-- Generator: Sketch 51.2 (57519) - http://www.bohemiancoding.com/sketch -->
    <title>闪电-2</title>
    <desc>Created with Sketch.</desc>
    <defs></defs>
    <g id="Page-1" stroke="none" stroke-width="1" fill="none" fill-rule="evenodd">
        <g id="天气监测图标10.10" transform="translate(-114.000000, -156.000000)" fill-rule="nonzero">
            <g id="Group-2-Copy-4" transform="translate(114.000000, 156.000000)">
                <g id="闪电-2" fill="#FFE000">
                    <polygon id="Shape" points="0.729492188 31.5566406 20.3203125 27.5322266 12.6132812 49.7207031 47.1777344 14.9921875 27.7919922 20.1054688 30.5566406 0.4296875"></polygon>
                </g>
                <g id="加" transform="translate(26.000000, 35.000000)" fill="#000000">
                    <rect id="Rectangle-path" opacity="0" x="0" y="0" width="16" height="16"></rect>
                    <path d="M18.9629339,1.9989339 C19.2331201,1.9989339 19.4926411,2.05226013 19.7414968,2.15891258 C19.9903525,2.26556503 20.2036574,2.4077683 20.3814115,2.58552239 C20.5591656,2.76327647 20.7013689,2.97658138 20.8080213,3.2254371 C20.9146738,3.47429282 20.968,3.73381379 20.968,4.004 C20.968,4.28840654 20.9146738,4.55148259 20.8080213,4.79322814 C20.7013689,5.0349737 20.5591656,5.24472353 20.3814115,5.42247761 C20.2036574,5.6002317 19.9903525,5.74243497 19.7414968,5.84908742 C19.4926411,5.95573987 19.2331201,6.0090661 18.9629339,6.0090661 L12.9690661,6.0090661 L8.9589339,6.0090661 L2.9650661,6.0090661 C2.68065956,6.0090661 2.41758351,5.95573987 2.17583795,5.84908742 C1.9340924,5.74243497 1.72434257,5.6002317 1.54658849,5.42247761 C1.3688344,5.24472353 1.22663113,5.0349737 1.11997868,4.79322814 C1.01332623,4.55148259 0.96,4.28840654 0.96,4.004 C0.96,3.73381379 1.01332623,3.47429282 1.11997868,3.2254371 C1.22663113,2.97658138 1.3688344,2.76327647 1.54658849,2.58552239 C1.72434257,2.4077683 1.9340924,2.26556503 2.17583795,2.15891258 C2.41758351,2.05226013 2.68065956,1.9989339 2.9650661,1.9989339 L8.9589339,1.9989339 L12.9690661,1.9989339 L18.9629339,1.9989339 Z" id="Shape"></path>
                </g>
            </g>
        </g>
    </g>
</svg>